Coordinates
version=1
nRows=17
nColumns=24
inDegrees=yes

Units are S.I. units (second, meters, Newtons, ...)
Angles are in degrees.

endheader
time	pelvis_tilt	pelvis_list	pelvis_rotation	pelvis_tx	pelvis_ty	pelvis_tz	hip_flexion_r	hip_adduction_r	hip_rotation_r	knee_angle_r	ankle_angle_r	subtalar_angle_r	mtp_angle_r	hip_flexion_l	hip_adduction_l	hip_rotation_l	knee_angle_l	ankle_angle_l	subtalar_angle_l	mtp_angle_l	lumbar_extension	lumbar_bending	lumbar_rotation
      0.01000000	     61.18889743	      0.43870374	     -3.80071302	      0.54318105	      1.00145951	     -0.29626471	     13.21220720	    -10.62622074	     21.13123577	      6.13561626	    -23.03754243	      5.48237251	    -21.66445307	     -3.29832094	     -7.68174541	      0.99837055	    -54.75934642	     -2.26027370	     10.25818933	    -31.24252876	      0.00000000	      0.00000000	      0.00000000
      0.02000000	     61.12656414	      0.47709451	     -3.75725589	      0.54316225	      1.00139546	     -0.29630207	     13.24592692	    -10.68354087	     21.06184843	      6.20075753	    -23.05869161	      5.45032136	    -21.72750890	     -3.21004726	     -7.63326715	      1.06767544	    -54.77179484	     -2.25382958	     10.22995074	    -31.22228335	      0.00000000	      0.00000000	      0.00000000
      0.03000000	     61.12493759	      0.49152967	     -3.74612824	      0.54313170	      1.00135838	     -0.29632446	     13.23589633	    -10.70988793	     21.03467549	      6.23303703	    -23.06133547	      5.43264601	    -21.83576523	     -3.19760644	     -7.61233580	      1.09056085	    -54.78113212	     -2.24801539	     10.22160401	    -31.17641699	      0.00000000	      0.00000000	      0.00000000
      0.04000000	     61.16148640	      0.49002266	     -3.75508612	      0.54310651	      1.00135022	     -0.29633368	     13.19865354	    -10.71539950	     21.03582808	      6.24355844	    -23.05170040	      5.42417646	    -21.97759541	     -3.23570353	     -7.60998953	      1.08215961	    -54.78706314	     -2.24267458	     10.22631556	    -31.11449600	      0.00000000	      0.00000000	      0.00000000
      0.05000000	     61.21212509	      0.48076914	     -3.77194166	      0.54309062	      1.00136023	     -0.29632958	     13.15260596	    -10.71085451	     21.05024491	      6.24373140	    -23.03699900	      5.41956050	    -22.13816707	     -3.29558651	     -7.61672622	      1.05879396	    -54.78955093	     -2.23773927	     10.23668021	    -31.04802804	      0.00000000	      0.00000000	      0.00000000
      0.06000000	     61.25787573	      0.47000290	     -3.78812171	      0.54307863	      1.00137523	     -0.29631532	     13.11305800	    -10.70453344	     21.06579892	      6.24199941	    -23.02375062	      5.41489771	    -22.30211933	     -3.35271416	     -7.62525199	      1.03350508	    -54.78922192	     -2.23324327	     10.24672981	    -30.98777148	      0.00000000	      0.00000000	      0.00000000
      0.07000000	     61.28752117	      0.46144207	     -3.79950543	      0.54306749	      1.00138917	     -0.29630013	     13.08932503	    -10.70077005	     21.07518650	      6.24281950	    -23.01670652	      5.40841527	    -22.45545781	     -3.39147474	     -7.63162052	      1.01401985	    -54.78748579	     -2.22924229	     10.25287007	    -30.94183335	      0.00000000	      0.00000000	      0.00000000
      0.08000000	     61.29744992	      0.45656645	     -3.80552704	      0.54306090	      1.00139843	     -0.29629192	     13.08382876	    -10.70010955	     21.07588704	      6.24732557	    -23.01828402	      5.40028228	    -22.58672944	     -3.40649605	     -7.63489343	      1.00286692	    -54.78610955	     -2.22571584	     10.25390972	    -30.91459973	      0.00000000	      0.00000000	      0.00000000
      0.09000000	     61.29038775	      0.45505689	     -3.80753394	      0.54306414	      1.00139976	     -0.29629012	     13.09326698	    -10.70071781	     21.06884580	      6.25492749	    -23.02845838	      5.39180909	    -22.68762558	     -3.40095283	     -7.63585725	      0.99899467	    -54.78642076	     -2.22253784	     10.25048935	    -30.90648009	      0.00000000	      0.00000000	      0.00000000
      0.10000000	     61.27348534	      0.45537008	     -3.80718805	      0.54307501	      1.00139542	     -0.29628887	     13.11106373	    -10.70038785	     21.05665728	      6.26479926	    -23.04508777	      5.38439608	    -22.75319794	     -3.38322991	     -7.63559059	      1.00002527	    -54.78867640	     -2.21956450	     10.24427679	    -30.91437511	      0.00000000	      0.00000000	      0.00000000
      0.11000000	     61.25536713	      0.45581097	     -3.80543768	      0.54308479	      1.00139035	     -0.29628580	     13.12941120	    -10.69821778	     21.04195372	      6.27622365	    -23.06464145	      5.37866902	    -22.78185997	     -3.36331329	     -7.63446668	      1.00422671	    -54.79200015	     -2.21679674	     10.23723477	    -30.93269708	      0.00000000	      0.00000000	      0.00000000
      0.12000000	     61.24317704	      0.45582194	     -3.80198484	      0.54308795	      1.00138825	     -0.29628673	     13.14067303	    -10.69533201	     21.02651805	      6.28799211	    -23.08321861	      5.37415526	    -22.77528517	     -3.34984563	     -7.63180716	      1.01149142	    -54.79489937	     -2.21451990	     10.23112834	    -30.95470505	      0.00000000	      0.00000000	      0.00000000
      0.13000000	     61.24143637	      0.45675987	     -3.79507183	      0.54308691	      1.00139529	     -0.29630024	     13.13902000	    -10.69452680	     21.01127300	      6.29795805	    -23.09760137	      5.36957866	    -22.73822653	     -3.34827603	     -7.62619993	      1.02313079	    -54.79602074	     -2.21333169	     10.22727801	    -30.97388921	      0.00000000	      0.00000000	      0.00000000
      0.14000000	     61.25268676	      0.46178843	     -3.78193314	      0.54308697	      1.00141540	     -0.29632605	     13.12194493	    -10.69895564	     20.99685199	      6.30329504	    -23.10601565	      5.36355167	    -22.67821300	     -3.36013533	     -7.61624990	      1.04082707	    -54.79472375	     -2.21400588	     10.22645730	    -30.98515825	      0.00000000	      0.00000000	      0.00000000
      0.15000000	     61.27844681	      0.47464548	     -3.76023541	      0.54307863	      1.00143681	     -0.29634562	     13.09073927	    -10.71046994	     20.98418691	      6.30141422	    -23.10835528	      5.35528715	    -22.60505556	     -3.38344386	     -7.60131075	      1.06536777	    -54.79130430	     -2.21721478	     10.22883464	    -30.98564679	      0.00000000	      0.00000000	      0.00000000
      0.16000000	     61.31914890	      0.49735813	     -3.73003069	      0.54302462	      1.00143145	     -0.29632736	     13.04957996	    -10.72857880	     20.97459360	      6.29120056	    -23.10582191	      5.34496952	    -22.53012302	     -3.41429220	     -7.58174637	      1.09578485	    -54.78694613	     -2.22323213	     10.23393858	    -30.97504708	      0.00000000	      0.00000000	      0.00000000
      0.17000000	     61.37286221	      0.52813337	     -3.69492728	      0.54289009	      1.00137824	     -0.29625773	     13.00335797	    -10.75059562	     20.96917736	      6.27395803	    -23.10015945	      5.33360994	    -22.46540499	     -3.44918814	     -7.55864569	      1.12935250	    -54.78341769	     -2.23177073	     10.24069714	    -30.95545946	      0.00000000	      0.00000000	      0.00000000
